<?xml version="1.0" encoding="UTF-8"?>
<svg id="Layer_2" data-name="Layer 2" xmlns="http://www.w3.org/2000/svg" viewBox="0 0 450 450">
  <defs>
    <style>
      .cls-1 {
        fill: #9600ff;
        opacity: .26;
      }
    </style>
  </defs>
  <g id="Layer_1-2" data-name="Layer 1">
    <path class="cls-1" d="M336.15,419.55l-96.42-139.56-13.72,169.07c-.1,1.25-1.93,1.25-2.03,0l-13.72-169.07-96.42,139.56c-.71,1.03-2.29.12-1.76-1.01l72.66-153.28L31.46,337.91c-1.13.54-2.04-1.05-1.01-1.76l139.56-96.42L.94,226.01c-1.25-.1-1.25-1.93,0-2.03l169.07-13.72L30.45,113.85c-1.03-.71-.12-2.29,1.01-1.76l153.28,72.66L112.09,31.46c-.54-1.13,1.05-2.04,1.76-1.01l96.42,139.56L223.99.94c.1-1.25,1.93-1.25,2.03,0l13.72,169.07L336.15,30.45c.71-1.03,2.29-.12,1.76,1.01l-72.66,153.28,153.28-72.66c1.13-.54,2.04,1.05,1.01,1.76l-139.56,96.42,169.07,13.72c1.25.1,1.25,1.93,0,2.03l-169.07,13.72,139.56,96.42c1.03.71.12,2.29-1.01,1.76l-153.28-72.66,72.66,153.28c.54,1.13-1.05,2.04-1.76,1.01Z"/>
  </g>
</svg>